<svg width="50" height="45" viewBox="0 0 50 45" fill="none" xmlns="http://www.w3.org/2000/svg">
<path d="M25 45C20.0242 45 15.6522 44.0657 11.8841 42.197C8.16425 40.2778 5.24155 37.6263 3.11594 34.2424C1.03865 30.8586 0 26.9444 0 22.5C0 18.0051 1.03865 14.0909 3.11594 10.7576C5.24155 7.37374 8.16425 4.74748 11.8841 2.87879C15.6522 0.959595 20.0242 0 25 0C29.9758 0 34.3237 0.959595 38.0435 2.87879C41.8116 4.74748 44.7343 7.37374 46.8116 10.7576C48.9372 14.0909 50 18.0051 50 22.5C50 26.9444 48.9372 30.8586 46.8116 34.2424C44.7343 37.6263 41.8116 40.2778 38.0435 42.197C34.3237 44.0657 29.9758 45 25 45ZM25 37.2727C28.1884 37.2727 30.9179 36.6667 33.1884 35.4545C35.5072 34.2424 37.2947 32.5505 38.5507 30.3788C39.8068 28.1566 40.4348 25.5303 40.4348 22.5C40.4348 19.4697 39.8068 16.8687 38.5507 14.697C37.2947 12.4747 35.5072 10.7576 33.1884 9.54545C30.9179 8.33333 28.1884 7.72727 25 7.72727C21.8599 7.72727 19.1304 8.33333 16.8116 9.54545C14.4928 10.7576 12.7053 12.4747 11.4493 14.697C10.1932 16.8687 9.56522 19.4697 9.56522 22.5C9.56522 25.5303 10.1932 28.1566 11.4493 30.3788C12.7053 32.5505 14.4928 34.2424 16.8116 35.4545C19.1304 36.6667 21.8599 37.2727 25 37.2727Z" fill="#573A74"/>
<path d="M20.6402 17.9394L24.5188 18.4242L28.3598 17.9394V32H20.6402V17.9394ZM24.4812 16.8C23.1506 16.8 22.0711 16.5899 21.2427 16.1697C20.4142 15.7333 20 15.1434 20 14.4C20 13.6727 20.4142 13.0909 21.2427 12.6545C22.0711 12.2182 23.1506 12 24.4812 12C25.8619 12 26.954 12.2182 27.7573 12.6545C28.5858 13.0909 29 13.6727 29 14.4C29 15.1434 28.5858 15.7333 27.7573 16.1697C26.954 16.5899 25.8619 16.8 24.4812 16.8Z" fill="#573A74"/>
</svg>
