<svg width="50" height="50" viewBox="0 0 50 50" fill="none" xmlns="http://www.w3.org/2000/svg">
<path fill-rule="evenodd" clip-rule="evenodd" d="M50 44.4443C50 45.9178 49.4149 47.3312 48.373 48.373C47.3312 49.4149 45.9178 50 44.4443 50H5.55566C4.08224 50 2.66882 49.4149 1.62695 48.373C0.585084 47.3312 0 45.9178 0 44.4443V16.667H50V44.4443ZM21.9668 23V35.4189H17L25.5 45L34 35.4189H29.0332V23H21.9668Z" fill="#573A74"/>
<path d="M37.7393 0C39.2124 0.000412366 40.6255 0.586076 41.667 1.62793L48.3721 8.33301C49.1332 9.09336 49.6577 10.0589 49.8809 11.1113H0.119141C0.34235 10.0589 0.866795 9.09336 1.62793 8.33301L8.33301 1.62793C9.37455 0.586076 10.7876 0.000412211 12.2607 0H37.7393Z" fill="#573A74"/>
</svg>
