<svg width="45" height="50" viewBox="0 0 45 50" fill="none" xmlns="http://www.w3.org/2000/svg">
<path d="M28.75 40C27 40 25.5208 39.3958 24.3125 38.1875C23.1042 36.9792 22.5 35.5 22.5 33.75C22.5 32 23.1042 30.5208 24.3125 29.3125C25.5208 28.1042 27 27.5 28.75 27.5C30.5 27.5 31.9792 28.1042 33.1875 29.3125C34.3958 30.5208 35 32 35 33.75C35 35.5 34.3958 36.9792 33.1875 38.1875C31.9792 39.3958 30.5 40 28.75 40ZM5 50C3.625 50 2.44833 49.5108 1.47 48.5325C0.491667 47.5542 0.00166667 46.3767 0 45V10C0 8.625 0.49 7.44833 1.47 6.47C2.45 5.49167 3.62667 5.00167 5 5H7.5V0H12.5V5H32.5V0H37.5V5H40C41.375 5 42.5525 5.49 43.5325 6.47C44.5125 7.45 45.0017 8.62667 45 10V45C45 46.375 44.5108 47.5525 43.5325 48.5325C42.5542 49.5125 41.3767 50.0017 40 50H5ZM5 45H40V20H5V45Z" fill="#573A74"/>
</svg>
