<svg width="130" height="117" viewBox="0 0 150 135" fill="none" xmlns="http://www.w3.org/2000/svg">
<path d="M75 135C60.0725 135 46.9565 132.197 35.6522 126.591C24.4928 120.833 15.7246 112.879 9.34783 102.727C3.11594 92.5757 0 80.8333 0 67.5C0 54.0152 3.11594 42.2727 9.34783 32.2727C15.7246 22.1212 24.4928 14.2424 35.6522 8.63636C46.9565 2.87879 60.0725 0 75 0C89.9275 0 102.971 2.87879 114.13 8.63636C125.435 14.2424 134.203 22.1212 140.435 32.2727C146.812 42.2727 150 54.0152 150 67.5C150 80.8333 146.812 92.5757 140.435 102.727C134.203 112.879 125.435 120.833 114.13 126.591C102.971 132.197 89.9275 135 75 135ZM75 111.818C84.5652 111.818 92.7536 110 99.5652 106.364C106.522 102.727 111.884 97.6515 115.652 91.1364C119.42 84.4697 121.304 76.5909 121.304 67.5C121.304 58.4091 119.42 50.6061 115.652 44.0909C111.884 37.4242 106.522 32.2727 99.5652 28.6364C92.7536 25 84.5652 23.1818 75 23.1818C65.5797 23.1818 57.3913 25 50.4348 28.6364C43.4783 32.2727 38.1159 37.4242 34.3478 44.0909C30.5797 50.6061 28.6957 58.4091 28.6957 67.5C28.6957 76.5909 30.5797 84.4697 34.3478 91.1364C38.1159 97.6515 43.4783 102.727 50.4348 106.364C57.3913 110 65.5797 111.818 75 111.818Z" fill="#B1D481"/>
<path d="M78.7683 44.7189L73.917 73.834L69.0658 44.7189C68.9495 44.0149 68.9877 43.294 69.1779 42.6062C69.3682 41.9185 69.7058 41.2804 70.1674 40.7363C70.629 40.1921 71.2035 39.755 71.851 39.4551C72.4985 39.1553 73.2035 39 73.917 39C74.6306 39 75.3356 39.1553 75.9831 39.4551C76.6306 39.755 77.2051 40.1921 77.6667 40.7363C78.1283 41.2804 78.4659 41.9185 78.6562 42.6062C78.8464 43.294 78.8846 44.0149 78.7683 44.7189Z" stroke="#573A74" stroke-width="11.6151" stroke-linecap="round" stroke-linejoin="round"/>
<path d="M73.9169 99C76.0551 99 77.7886 97.2666 77.7886 95.1283C77.7886 92.99 76.0551 91.2566 73.9169 91.2566C71.7786 91.2566 70.0452 92.99 70.0452 95.1283C70.0452 97.2666 71.7786 99 73.9169 99Z" stroke="#573A74" stroke-width="7.74338"/>
</svg>
