<svg width="45" height="50" viewBox="0 0 45 50" fill="none" xmlns="http://www.w3.org/2000/svg">
<path fill-rule="evenodd" clip-rule="evenodd" d="M37.5 17.5C39.413 17.4999 41.2538 18.2308 42.6456 19.5432C44.0375 20.8556 44.8753 22.6503 44.9875 24.56L45 25V32.5C45 34.1 44.0525 35.3475 42.795 35.9175L42.5 36.035V45C42.5004 46.2614 42.024 47.4764 41.1663 48.4014C40.3085 49.3263 39.1329 49.8929 37.875 49.9875L37.5 50H7.5C6.23856 50.0004 5.02358 49.524 4.09863 48.6663C3.17368 47.8085 2.60711 46.6329 2.5125 45.375L2.5 45V36.0375C1.82525 35.8022 1.23244 35.3777 0.792269 34.8147C0.352098 34.2518 0.0831489 33.5741 0.0174999 32.8625L1.16511e-08 32.5V25C-0.000106554 23.087 0.730813 21.2462 2.04321 19.8543C3.35561 18.4625 5.15027 17.6247 7.06 17.5125L7.5 17.5H37.5ZM37.3325 34.25C36.9447 33.959 36.4806 33.787 35.9967 33.755C35.5129 33.7231 35.0302 33.8325 34.6075 34.07L34.3325 34.25L33.6675 34.75C32.4407 35.6705 30.9612 36.1928 29.4284 36.2465C27.8956 36.3001 26.3831 35.8825 25.095 35.05L24.6675 34.75L24 34.25C23.6122 33.959 23.1481 33.787 22.6642 33.755C22.1804 33.7231 21.6977 33.8325 21.275 34.07L21 34.25L20.3325 34.75C19.106 35.67 17.6269 36.192 16.0946 36.2456C14.5623 36.2993 13.0504 35.882 11.7625 35.05L11.3325 34.75L10.6675 34.25C10.2797 33.959 9.81558 33.787 9.33175 33.755C8.84792 33.7231 8.36524 33.8325 7.9425 34.07L7.6675 34.25L7.5 34.375V45H37.5V34.375L37.3325 34.25ZM24 0.5C25.0322 1.30889 25.9917 2.20648 26.8675 3.1825C28.1775 4.655 30 7.1375 30 10C30 11.9891 29.2098 13.8968 27.8033 15.3033C26.3968 16.7098 24.4891 17.5 22.5 17.5C20.5109 17.5 18.6032 16.7098 17.1967 15.3033C15.7902 13.8968 15 11.9891 15 10C15 7.1375 16.825 4.655 18.1325 3.1825C19.0083 2.20648 19.9678 1.30889 21 0.5C21.4327 0.175445 21.9591 0 22.5 0C23.0409 0 23.5673 0.175445 24 0.5Z" fill="#573A74"/>
</svg>
