<svg width="50" height="50" viewBox="0 0 50 50" fill="none" xmlns="http://www.w3.org/2000/svg">
<path d="M40.2778 25C39.1727 25 38.1129 24.561 37.3315 23.7796C36.5501 22.9982 36.1111 21.9384 36.1111 20.8333C36.1111 19.7283 36.5501 18.6685 37.3315 17.8871C38.1129 17.1057 39.1727 16.6667 40.2778 16.6667C41.3828 16.6667 42.4427 17.1057 43.2241 17.8871C44.0055 18.6685 44.4444 19.7283 44.4444 20.8333C44.4444 21.9384 44.0055 22.9982 43.2241 23.7796C42.4427 24.561 41.3828 25 40.2778 25ZM31.9444 13.8889C30.8394 13.8889 29.7796 13.4499 28.9982 12.6685C28.2168 11.8871 27.7778 10.8273 27.7778 9.72222C27.7778 8.61715 28.2168 7.55734 28.9982 6.77594C29.7796 5.99454 30.8394 5.55556 31.9444 5.55556C33.0495 5.55556 34.1093 5.99454 34.8907 6.77594C35.6721 7.55734 36.1111 8.61715 36.1111 9.72222C36.1111 10.8273 35.6721 11.8871 34.8907 12.6685C34.1093 13.4499 33.0495 13.8889 31.9444 13.8889ZM18.0556 13.8889C16.9505 13.8889 15.8907 13.4499 15.1093 12.6685C14.3279 11.8871 13.8889 10.8273 13.8889 9.72222C13.8889 8.61715 14.3279 7.55734 15.1093 6.77594C15.8907 5.99454 16.9505 5.55556 18.0556 5.55556C19.1606 5.55556 20.2204 5.99454 21.0018 6.77594C21.7832 7.55734 22.2222 8.61715 22.2222 9.72222C22.2222 10.8273 21.7832 11.8871 21.0018 12.6685C20.2204 13.4499 19.1606 13.8889 18.0556 13.8889ZM9.72222 25C8.61715 25 7.55734 24.561 6.77594 23.7796C5.99454 22.9982 5.55556 21.9384 5.55556 20.8333C5.55556 19.7283 5.99454 18.6685 6.77594 17.8871C7.55734 17.1057 8.61715 16.6667 9.72222 16.6667C10.8273 16.6667 11.8871 17.1057 12.6685 17.8871C13.4499 18.6685 13.8889 19.7283 13.8889 20.8333C13.8889 21.9384 13.4499 22.9982 12.6685 23.7796C11.8871 24.561 10.8273 25 9.72222 25ZM25 0C18.3696 0 12.0107 2.63392 7.32233 7.32233C2.63392 12.0107 0 18.3696 0 25C0 31.6304 2.63392 37.9893 7.32233 42.6777C12.0107 47.3661 18.3696 50 25 50C26.1051 50 27.1649 49.561 27.9463 48.7796C28.7277 47.9982 29.1667 46.9384 29.1667 45.8333C29.1667 44.75 28.75 43.7778 28.0833 43.0556C27.4444 42.3056 27.0278 41.3333 27.0278 40.2778C27.0278 39.1727 27.4668 38.1129 28.2482 37.3315C29.0296 36.5501 30.0894 36.1111 31.1944 36.1111H36.1111C39.7947 36.1111 43.3274 34.6478 45.932 32.0431C48.5367 29.4385 50 25.9058 50 22.2222C50 9.94444 38.8056 0 25 0Z" fill="#573A74"/>
</svg>
