<svg width="130" height="117" viewBox="0 0 130 117" fill="none" xmlns="http://www.w3.org/2000/svg">
<path d="M65 117C52.0628 117 40.6956 114.571 30.8985 109.712C21.2271 104.722 13.628 97.8283 8.10145 89.0303C2.70048 80.2323 0 70.0556 0 58.5C0 46.8131 2.70048 36.6364 8.10145 27.9697C13.628 19.1717 21.2271 12.3434 30.8985 7.48484C40.6956 2.49495 52.0628 0 65 0C77.9372 0 89.2415 2.49495 98.913 7.48484C108.71 12.3434 116.309 19.1717 121.71 27.9697C127.237 36.6364 130 46.8131 130 58.5C130 70.0556 127.237 80.2323 121.71 89.0303C116.309 97.8283 108.71 104.722 98.913 109.712C89.2415 114.571 77.9372 117 65 117ZM65 96.9091C73.2898 96.9091 80.3865 95.3333 86.2898 92.1818C92.3188 89.0303 96.9662 84.6313 100.232 78.9848C103.498 73.2071 105.13 66.3788 105.13 58.5C105.13 50.6212 103.498 43.8586 100.232 38.2121C96.9662 32.4343 92.3188 27.9697 86.2898 24.8182C80.3865 21.6667 73.2898 20.0909 65 20.0909C56.8357 20.0909 49.7391 21.6667 43.7101 24.8182C37.6812 27.9697 33.0338 32.4343 29.7681 38.2121C26.5024 43.8586 24.8696 50.6212 24.8696 58.5C24.8696 66.3788 26.5024 73.2071 29.7681 78.9848C33.0338 84.6313 37.6812 89.0303 43.7101 92.1818C49.7391 95.3333 56.8357 96.9091 65 96.9091Z" fill="#B1D481"/>
<path d="M86.0533 33.9686C85.1718 33.4778 84.2025 33.1658 83.2007 33.0504C82.1989 32.9349 81.1842 33.0184 80.2145 33.2958C79.2449 33.5733 78.3393 34.0395 77.5495 34.6677C76.7597 35.2958 76.1012 36.0737 75.6115 36.9569L61.3578 62.6552L53.2002 54.4827C52.492 53.748 51.6448 53.162 50.7081 52.7589C49.7714 52.3558 48.7639 52.1436 47.7445 52.1347C46.725 52.1259 45.714 52.3205 44.7704 52.7072C43.8269 53.094 42.9696 53.6651 42.2488 54.3873C41.5279 55.1095 40.9578 55.9683 40.5717 56.9136C40.1857 57.8589 39.9914 58.8718 40.0003 59.8931C40.0091 60.9144 40.2209 61.9237 40.6233 62.8621C41.0257 63.8006 41.6106 64.6493 42.3439 65.3589L57.6994 80.7425C59.1505 82.2001 61.1083 83 63.1275 83L64.1909 82.9231C65.3677 82.7582 66.4903 82.3218 67.4702 81.6485C68.45 80.9751 69.2606 80.0831 69.8379 79.0426L89.0322 44.4295C89.5223 43.5467 89.8339 42.5758 89.9495 41.5723C90.065 40.5688 89.982 39.5523 89.7054 38.5809C89.4288 37.6095 88.9639 36.7023 88.3372 35.9109C87.7106 35.1195 86.9345 34.4595 86.0533 33.9686Z" fill="#573A74"/>
</svg>
