<svg width="50" height="50" viewBox="0 0 50 50" fill="none" xmlns="http://www.w3.org/2000/svg">
<path fill-rule="evenodd" clip-rule="evenodd" d="M34.375 2.00276C34.375 3.10885 35.2775 4.00552 36.3909 4.00552H46.8521C48.5906 4.00552 50 5.40573 50 7.13297V8.7081C50 9.56543 49.3004 10.2604 48.4375 10.2604C47.5746 10.2604 46.875 10.9554 46.875 11.8128V44.5892C46.8749 46.077 46.2637 47.3513 45.041 48.4118C43.8181 49.4724 42.3458 50.0018 40.625 50H9.375C7.65634 50 6.18577 49.4704 4.96289 48.4118C3.74007 47.3531 3.12717 46.0789 3.125 44.5892V11.8128C3.125 10.9554 2.42544 10.2604 1.5625 10.2604C0.699555 10.2604 0 9.56543 0 8.7081V7.13297C0 5.40573 1.40938 4.00552 3.14795 4.00552H13.6091C14.7225 4.00552 15.625 3.10885 15.625 2.00276C15.625 0.896666 16.5275 0 17.6409 0H32.3591C33.4725 0 34.375 0.896666 34.375 2.00276ZM12 40.5618C12 41.9336 13.1193 43.0456 14.5 43.0456C15.8807 43.0456 17 41.9336 17 40.5618V14.7311C17 13.3594 15.8807 12.2474 14.5 12.2474C13.1193 12.2474 12 13.3594 12 14.7311V40.5618ZM22.5 40.5618C22.5 41.9336 23.6193 43.0456 25 43.0456C26.3807 43.0456 27.5 41.9336 27.5 40.5618V14.7311C27.5 13.3594 26.3807 12.2474 25 12.2474C23.6193 12.2474 22.5 13.3594 22.5 14.7311V40.5618ZM35.5 12.2474C34.1193 12.2474 33 13.3594 33 14.7311V40.5618C33 41.9336 34.1193 43.0456 35.5 43.0456C36.8807 43.0456 38 41.9336 38 40.5618V14.7311C38 13.3594 36.8807 12.2474 35.5 12.2474Z" fill="#573A74"/>
</svg>
