<svg width="12" height="50" viewBox="0 0 12 50" fill="none" xmlns="http://www.w3.org/2000/svg">
<path d="M11.1111 5.55556C11.1111 8.6238 8.6238 11.1111 5.55556 11.1111C2.48731 11.1111 0 8.6238 0 5.55556C0 2.48731 2.48731 0 5.55556 0C8.6238 0 11.1111 2.48731 11.1111 5.55556Z" fill="#573A74"/>
<path d="M11.1111 25C11.1111 28.0682 8.6238 30.5556 5.55556 30.5556C2.48731 30.5556 0 28.0682 0 25C0 21.9318 2.48731 19.4444 5.55556 19.4444C8.6238 19.4444 11.1111 21.9318 11.1111 25Z" fill="#573A74"/>
<path d="M11.1111 44.4444C11.1111 47.5127 8.6238 50 5.55556 50C2.48731 50 0 47.5127 0 44.4444C0 41.3762 2.48731 38.8889 5.55556 38.8889C8.6238 38.8889 11.1111 41.3762 11.1111 44.4444Z" fill="#573A74"/>
</svg>
