<svg width="38" height="32" viewBox="0 0 38 32" fill="none" xmlns="http://www.w3.org/2000/svg">
<path d="M18.7064 10.5923L24.1818 16.1709V15.8884C24.1818 14.4838 23.6359 13.1367 22.6641 12.1435C21.6923 11.1502 20.3743 10.5923 19 10.5923H18.7064ZM11.2791 12.0046L13.9564 14.7409C13.87 15.1116 13.8182 15.4824 13.8182 15.8884C13.8182 17.293 14.3641 18.6401 15.3359 19.6333C16.3077 20.6265 17.6257 21.1845 19 21.1845C19.38 21.1845 19.76 21.1316 20.1227 21.0433L22.8 23.7796C21.6427 24.3622 20.3645 24.7153 19 24.7153C16.7095 24.7153 14.5128 23.7853 12.8932 22.1299C11.2735 20.4746 10.3636 18.2294 10.3636 15.8884C10.3636 14.4937 10.7091 13.1874 11.2791 12.0046ZM1.72727 2.24203L6.44273 7.06151C3.59273 9.3565 1.34727 12.3576 0 15.8884C2.98818 23.6384 10.3636 29.1287 19 29.1287C21.6773 29.1287 24.2336 28.5991 26.5655 27.6458L27.3082 28.3873L30.78 32L33.06 29.6867L3.92091 0M19 7.06151C21.2905 7.06151 23.4872 7.99148 25.1068 9.64685C26.7265 11.3022 27.6364 13.5474 27.6364 15.8884C27.6364 17.0182 27.4118 18.1128 27.0145 19.1014L32.0755 24.2739C34.6664 22.0672 36.7391 19.172 38 15.8884C35.0118 8.13839 27.6364 2.64807 19 2.64807C16.5818 2.64807 14.2673 3.08941 12.0909 3.88383L15.8391 7.67939C16.8236 7.29101 17.8773 7.06151 19 7.06151Z" fill="#573A74"/>
</svg>
