<svg width="22" height="26" viewBox="0 0 38 26" fill="none" xmlns="http://www.w3.org/2000/svg">
<path d="M19 7.8C17.6257 7.8 16.3077 8.34785 15.3359 9.32304C14.3641 10.2982 13.8182 11.6209 13.8182 13C13.8182 14.3791 14.3641 15.7018 15.3359 16.677C16.3077 17.6521 17.6257 18.2 19 18.2C20.3743 18.2 21.6923 17.6521 22.6641 16.677C23.6359 15.7018 24.1818 14.3791 24.1818 13C24.1818 11.6209 23.6359 10.2982 22.6641 9.32304C21.6923 8.34785 20.3743 7.8 19 7.8ZM19 21.6667C16.7095 21.6667 14.5128 20.7536 12.8932 19.1283C11.2735 17.5029 10.3636 15.2985 10.3636 13C10.3636 10.7015 11.2735 8.49706 12.8932 6.87174C14.5128 5.24643 16.7095 4.33333 19 4.33333C21.2905 4.33333 23.4872 5.24643 25.1068 6.87174C26.7265 8.49706 27.6364 10.7015 27.6364 13C27.6364 15.2985 26.7265 17.5029 25.1068 19.1283C23.4872 20.7536 21.2905 21.6667 19 21.6667ZM19 0C10.3636 0 2.98818 5.39067 0 13C2.98818 20.6093 10.3636 26 19 26C27.6364 26 35.0118 20.6093 38 13C35.0118 5.39067 27.6364 0 19 0Z" fill="#573A74"/>
</svg>
