<svg width="50" height="50" viewBox="0 0 50 50" fill="none" xmlns="http://www.w3.org/2000/svg">
<path d="M16.0714 25C16.0714 22.5125 16.2107 20.1179 16.4679 17.8571H33.5321C33.7893 20.1179 33.9286 22.5125 33.9286 25C33.9286 27.4875 33.7893 29.8821 33.5321 32.1429H16.4679C16.2032 29.7711 16.0709 27.3865 16.0714 25ZM12.875 32.1429C12.6245 29.7702 12.4993 27.3859 12.5 25C12.5 22.5375 12.6304 20.1429 12.875 17.8571H1.03572C0.3468 20.1755 -0.00207252 22.5815 9.26177e-06 25C9.26177e-06 27.4821 0.362509 29.8804 1.03572 32.1429H12.875ZM48.9643 32.1429C49.6375 29.8804 50 27.4821 50 25C50 22.5179 49.6375 20.1196 48.9643 17.8571H37.125C37.3696 20.1429 37.5 22.5375 37.5 25C37.5 27.4625 37.3696 29.8571 37.125 32.1429H48.9643Z" fill="#573A74"/>
<path d="M47.204 36.5H36.4956C35.9423 39.5115 35.1759 42.2512 34.234 44.6036C33.5751 46.25 32.8179 47.7429 31.9626 49.0179C35.3594 48.0288 38.5083 46.3321 41.2026 44.0392C43.6738 41.9361 45.7112 39.375 47.204 36.5Z" fill="#573A74"/>
<path d="M19.0822 43.2768C18.3029 41.3276 17.6426 39.0402 17.1401 36.5H32.8602C32.3577 39.0414 31.6975 41.3274 30.9197 43.2768C29.9983 45.5768 28.9483 47.3161 27.8733 48.4554C26.8019 49.5875 25.8304 50 25.0001 50C24.1697 50 23.1983 49.5875 22.1269 48.4536C21.0519 47.3161 20.0019 45.5768 19.0822 43.2768Z" fill="#573A74"/>
<path d="M15.7662 44.6036C16.4251 46.25 17.1822 47.7429 18.0376 49.0179C14.6408 48.0288 11.4918 46.3321 8.79763 44.0392C6.32636 41.9361 4.28903 39.375 2.79614 36.5H13.5046C14.0579 39.5115 14.8242 42.2512 15.7662 44.6036Z" fill="#573A74"/>
<path d="M34.234 5.39643C35.1759 7.74877 35.9423 10.4885 36.4956 13.5H47.204C45.7111 10.625 43.6738 8.06395 41.2026 5.9608C38.5083 3.66791 35.3593 1.97118 31.9626 0.982143C32.8179 2.25714 33.5751 3.75 34.234 5.39643Z" fill="#573A74"/>
<path d="M27.8733 1.54643C28.9483 2.68214 29.9983 4.42321 30.9179 6.72321C31.6973 8.67245 32.3576 10.9598 32.8601 13.5H17.14C17.6425 10.9586 18.3027 8.67255 19.0804 6.72321C20.0019 4.42321 21.0519 2.68214 22.1269 1.54464C23.1947 0.417857 24.1626 0.00357143 24.9912 0H25.0054C25.834 0 26.8037 0.416071 27.8733 1.54643Z" fill="#573A74"/>
<path d="M2.79614 13.5H13.5046C14.0579 10.4885 14.8242 7.74877 15.7662 5.39643C16.4251 3.75 17.1822 2.25714 18.0376 0.982143C14.6408 1.97118 11.4918 3.66791 8.79763 5.9608C6.32636 8.06395 4.28903 10.625 2.79614 13.5Z" fill="#573A74"/>
</svg>
