<svg width="50" height="50" viewBox="0 0 50 50" fill="none" xmlns="http://www.w3.org/2000/svg">
<path d="M49.8991 18.8728C49.7849 18.4924 49.5705 18.1534 49.2808 17.8951C48.991 17.6367 48.6376 17.4694 48.2613 17.4124L33.4657 15.1502L26.8323 1.08995C26.6435 0.757701 26.3757 0.482573 26.0551 0.291511C25.7345 0.100448 25.3721 0 25.0034 0C24.6346 0 24.2722 0.100448 23.9516 0.291511C23.631 0.482573 23.3632 0.757701 23.1744 1.08995L16.541 15.1502L1.74547 17.4124C1.3691 17.4694 1.01572 17.6367 0.725968 17.8951C0.436221 18.1534 0.221876 18.4924 0.107588 18.8728C-0.0144218 19.2519 -0.0330698 19.6592 0.0537474 20.0488C0.140565 20.4383 0.329395 20.7947 0.598952 21.0778L11.3544 32.0167L8.81565 47.48C8.7513 47.8782 8.79382 48.2872 8.93845 48.6615C9.08308 49.0357 9.32411 49.3604 9.63459 49.5991C9.94556 49.8316 10.3123 49.9681 10.6934 49.9934C11.0745 50.0187 11.4547 49.9317 11.7911 49.7423L25.0034 42.4401L38.2429 49.7423C38.5358 49.9108 38.8643 49.9995 39.1983 50C39.6276 49.9931 40.0453 49.8537 40.3994 49.5991C40.7099 49.3604 40.9509 49.0357 41.0956 48.6615C41.2402 48.2872 41.2827 47.8782 41.2184 47.48L38.6524 32.0167L49.3805 21.0778C49.6547 20.7978 49.8487 20.4428 49.9404 20.0531C50.0321 19.6634 50.0178 19.2545 49.8991 18.8728Z" fill="#573A74"/>
</svg>
