<svg width="250" height="84" viewBox="0 0 260 87" fill="none" xmlns="http://www.w3.org/2000/svg">
<path d="M119.759 71.9935C114.886 71.9935 110.605 71.1183 106.914 69.3678C103.272 67.5701 100.409 65.0863 98.3278 61.9166C96.2935 58.7469 95.2763 55.0804 95.2763 50.9172C95.2763 46.7067 96.2935 43.0402 98.3278 39.9178C100.409 36.7481 103.272 34.288 106.914 32.5376C110.605 30.7398 114.886 29.8409 119.759 29.8409C124.632 29.8409 128.89 30.7398 132.532 32.5376C136.222 34.288 139.085 36.7481 141.119 39.9178C143.201 43.0402 144.241 46.7067 144.241 50.9172C144.241 55.0804 143.201 58.7469 141.119 61.9166C139.085 65.0863 136.222 67.5701 132.532 69.3678C128.89 71.1183 124.632 71.9935 119.759 71.9935ZM119.759 64.7552C122.881 64.7552 125.554 64.1875 127.778 63.052C130.049 61.9166 131.799 60.3318 133.029 58.2975C134.259 56.2159 134.874 53.7558 134.874 50.9172C134.874 48.0787 134.259 45.6422 133.029 43.6079C131.799 41.5263 130.049 39.9178 127.778 38.7824C125.554 37.647 122.881 37.0793 119.759 37.0793C116.684 37.0793 114.011 37.647 111.74 38.7824C109.469 39.9178 107.719 41.5263 106.489 43.6079C105.259 45.6422 104.644 48.0787 104.644 50.9172C104.644 53.7558 105.259 56.2159 106.489 58.2975C107.719 60.3318 109.469 61.9166 111.74 63.052C114.011 64.1875 116.684 64.7552 119.759 64.7552Z" fill="#AFC294"/>
<path d="M32.6487 52.2321C32.4124 54.5062 31.5855 56.4996 30.1679 58.2126C28.7503 59.9255 26.9045 61.2545 24.6305 62.1995C22.386 63.1446 19.8609 63.6171 17.0553 63.6171C13.9543 63.6171 11.2225 63.056 8.85989 61.9337C6.49725 60.8115 4.65144 59.2462 3.32246 57.238C1.99347 55.2297 1.32898 52.9114 1.32898 50.283C1.32898 47.625 1.99347 45.2919 3.32246 43.2836C4.65144 41.2754 6.49725 39.7102 8.85989 38.5879C11.2225 37.4361 13.9543 36.8602 17.0553 36.8602C19.8609 36.8602 22.386 37.3475 24.6305 38.3221C26.9045 39.2672 28.7503 40.5961 30.1679 42.3091C31.5855 43.9924 32.4124 45.9859 32.6487 48.2895H23.6559C23.331 46.7833 22.5779 45.6315 21.3966 44.8341C20.2153 44.0072 18.7682 43.5937 17.0553 43.5937C15.7263 43.5937 14.5597 43.8595 13.5556 44.3911C12.581 44.8932 11.8132 45.6463 11.2521 46.6504C10.7205 47.625 10.4547 48.8358 10.4547 50.283C10.4547 51.7005 10.7205 52.9114 11.2521 53.9155C11.8132 54.8901 12.581 55.6432 13.5556 56.1748C14.5597 56.6768 15.7263 56.9279 17.0553 56.9279C18.7682 56.9279 20.2153 56.4996 21.3966 55.6432C22.6075 54.7867 23.3606 53.6497 23.6559 52.2321H32.6487ZM36.2245 28.7977H45.3059V62.9083H36.2245V28.7977ZM54.5644 36.8602C57.0157 36.8602 59.083 37.3475 60.7664 38.3221C62.4793 39.2967 63.7935 40.67 64.709 42.442C65.6245 44.2139 66.0823 46.3108 66.0823 48.7325V62.9083H57.0009V50.0615C57.0009 48.1714 56.5136 46.7242 55.539 45.7201C54.594 44.716 53.2207 44.2139 51.4192 44.2139C50.1788 44.2139 49.0861 44.4797 48.141 45.0113C47.2255 45.5429 46.5167 46.296 46.0147 47.2706C45.5421 48.2452 45.3059 49.397 45.3059 50.726L42.4707 49.2641C42.8251 46.5766 43.5782 44.3173 44.73 42.4863C45.8818 40.6257 47.2993 39.2229 48.9827 38.2778C50.6956 37.3328 52.5562 36.8602 54.5644 36.8602ZM69.4643 37.6133H78.6786L80.1847 46.6504V62.9083H71.1477V46.1188L69.4643 37.6133ZM92.057 37.2146V44.9227C91.171 44.7455 90.3293 44.6274 89.5319 44.5683C88.7641 44.4797 88.0553 44.4354 87.4056 44.4354C86.1061 44.4354 84.91 44.7012 83.8173 45.2328C82.7246 45.7349 81.8386 46.5766 81.1593 47.7579C80.5096 48.9392 80.1847 50.5192 80.1847 52.4979L78.4571 50.3716C78.6933 48.5405 79.0477 46.8276 79.5203 45.2328C79.9928 43.6085 80.6277 42.1762 81.4251 40.9358C82.2521 39.6659 83.2709 38.6765 84.4818 37.9677C85.6926 37.2294 87.1693 36.8602 88.9117 36.8602C89.4138 36.8602 89.9306 36.8898 90.4622 36.9488C90.9938 37.0079 91.5254 37.0965 92.057 37.2146Z" fill="#5F4B64"/>
<path d="M147.824 36.6679H156.905L158.544 46.7682V61.9629H149.507V45.3949L147.824 36.6679ZM167.847 35.9148C170.269 35.9148 172.336 36.4021 174.049 37.3767C175.762 38.3513 177.062 39.7246 177.948 41.4965C178.863 43.2685 179.321 45.3654 179.321 47.7871V61.9629H170.284V49.116C170.284 47.2259 169.797 45.7788 168.822 44.7747C167.877 43.7706 166.504 43.2685 164.702 43.2685C163.462 43.2685 162.369 43.5343 161.424 44.0659C160.508 44.5975 159.8 45.3506 159.298 46.3252C158.795 47.2998 158.544 48.4516 158.544 49.7805L155.754 48.3187C156.108 45.6312 156.861 43.3719 158.013 41.5408C159.165 39.6803 160.582 38.2774 162.266 37.3324C163.949 36.3873 165.81 35.9148 167.847 35.9148ZM199.037 62.6717C195.788 62.6717 192.953 62.1253 190.531 61.0326C188.11 59.9103 186.22 58.3451 184.861 56.3369C183.503 54.2991 182.823 51.966 182.823 49.3375C182.823 46.65 183.503 44.3022 184.861 42.2939C186.22 40.2857 188.11 38.7204 190.531 37.5982C192.953 36.4759 195.788 35.9148 199.037 35.9148C202.256 35.9148 205.076 36.4759 207.498 37.5982C209.949 38.7204 211.854 40.2857 213.213 42.2939C214.571 44.3022 215.25 46.65 215.25 49.3375C215.25 51.966 214.571 54.2991 213.213 56.3369C211.854 58.3451 209.949 59.9103 207.498 61.0326C205.076 62.1253 202.256 62.6717 199.037 62.6717ZM199.037 55.9825C200.514 55.9825 201.769 55.7167 202.802 55.1851C203.866 54.6535 204.678 53.8856 205.239 52.8815C205.8 51.8774 206.081 50.6961 206.081 49.3375C206.081 47.92 205.8 46.7239 205.239 45.7493C204.678 44.7452 203.866 43.9773 202.802 43.4457C201.769 42.9141 200.514 42.6483 199.037 42.6483C197.56 42.6483 196.29 42.9141 195.227 43.4457C194.164 43.9773 193.352 44.7452 192.791 45.7493C192.23 46.7239 191.949 47.9052 191.949 49.2932C191.949 50.6813 192.23 51.8774 192.791 52.8815C193.352 53.8856 194.164 54.6535 195.227 55.1851C196.29 55.7167 197.56 55.9825 199.037 55.9825ZM248.386 53.7232C248.386 55.6724 247.795 57.3114 246.614 58.6404C245.433 59.9694 243.749 60.9735 241.564 61.6528C239.379 62.332 236.75 62.6717 233.679 62.6717C230.519 62.6717 227.743 62.2877 225.35 61.5199C222.988 60.752 221.142 59.6741 219.813 58.286C218.484 56.898 217.775 55.2884 217.687 53.4574H226.857C227.063 54.1366 227.462 54.7273 228.053 55.2294C228.673 55.7019 229.485 56.0711 230.489 56.3369C231.493 56.5731 232.689 56.6913 234.077 56.6913C235.879 56.6913 237.237 56.5141 238.153 56.1597C239.098 55.8053 239.571 55.2737 239.571 54.5649C239.571 54.0038 239.216 53.5903 238.507 53.3245C237.799 53.0292 236.588 52.8077 234.875 52.66L230.401 52.3056C227.418 52.0989 225.04 51.6559 223.268 50.9766C221.526 50.2678 220.271 49.3671 219.503 48.2744C218.735 47.1521 218.351 45.8822 218.351 44.4646C218.351 42.545 218.942 40.965 220.123 39.7246C221.334 38.4546 223.003 37.5096 225.129 36.8894C227.285 36.2397 229.795 35.9148 232.66 35.9148C235.495 35.9148 238.02 36.284 240.235 37.0223C242.45 37.7606 244.222 38.7943 245.551 40.1233C246.88 41.4227 247.648 42.9584 247.855 44.7304H238.685C238.537 44.1693 238.212 43.6672 237.71 43.2242C237.208 42.7517 236.514 42.3678 235.628 42.0724C234.742 41.7771 233.605 41.6294 232.217 41.6294C230.593 41.6294 229.352 41.8066 228.496 42.161C227.669 42.5154 227.255 43.0175 227.255 43.6672C227.255 44.1693 227.506 44.568 228.008 44.8633C228.54 45.1586 229.515 45.3654 230.932 45.4835L236.824 45.9265C239.748 46.1037 242.051 46.5319 243.735 47.2112C245.418 47.8609 246.614 48.7321 247.323 49.8248C248.032 50.9176 248.386 52.217 248.386 53.7232Z" fill="#5F4B64"/>
<path d="M123.992 51.6856C122.737 50.624 122.054 49.0354 122.145 47.3945L122.315 44.3358C122.415 42.5242 120.973 41 119.159 41C117.414 41 115.999 42.415 115.999 44.1604V49.8327C115.999 51.9309 116.891 53.9301 118.454 55.3306L121.461 58.0262C122.709 59.1441 124.602 59.1265 125.828 57.9856C127.25 56.6635 127.196 54.3967 125.714 53.1429L123.992 51.6856Z" fill="#5F4B64"/>
</svg>
