<svg width="50" height="50" viewBox="0 0 50 50" fill="none" xmlns="http://www.w3.org/2000/svg">
<path d="M12.1009 16.33C10.7733 18.743 10.1096 21.633 10.1096 25C10.1096 28.367 10.7733 31.2851 12.1009 33.7542C13.4284 36.1672 15.3175 38.0471 17.7684 39.3939C20.2192 40.7407 23.104 41.4141 26.4228 41.4141C29.7926 41.4141 32.6774 40.7407 35.0772 39.3939L40.2086 46.8855C36.2771 48.9618 31.6818 50 26.4228 50C21.1637 50 16.5429 48.9618 12.5604 46.8855C8.62888 44.7531 5.53984 41.807 3.29327 38.0471C1.09776 34.2873 0 29.9383 0 25C0 20.0056 1.09776 15.6566 3.29327 11.9529C5.53984 8.19304 8.62888 5.27497 12.5604 3.19865C16.5429 1.06622 21.1637 0 26.4228 0C31.6818 0 36.2771 1.06622 40.2086 3.19865L35.0772 10.6061C32.6774 9.25926 29.7926 8.58586 26.4228 8.58586C23.104 8.58586 20.2192 9.25926 17.7684 10.6061C15.3175 11.9529 13.4284 13.8608 12.1009 16.33Z" fill="#573A74"/>
<path d="M50 24.7863L37.8049 14.1026V35.4701L50 24.7863Z" fill="#573A74"/>
<path d="M21.5447 20.5128H39.0244V29.0598H21.5447V20.5128Z" fill="#573A74"/>
</svg>
