<svg width="238" height="46" viewBox="0 0 238 46" fill="none" xmlns="http://www.w3.org/2000/svg">
<path d="M114.153 45.511C109.467 45.511 105.351 44.6659 101.802 42.9758C98.3 41.2401 95.5471 38.8419 93.546 35.7815C91.5899 32.7211 90.6118 29.1811 90.6118 25.1614C90.6118 21.0961 91.5899 17.5561 93.546 14.5413C95.5471 11.4809 98.3 9.10566 101.802 7.41562C105.351 5.67981 109.467 4.8119 114.153 4.8119C118.838 4.8119 122.933 5.67981 126.435 7.41562C129.983 9.10566 132.736 11.4809 134.691 14.5413C136.693 17.5561 137.693 21.0961 137.693 25.1614C137.693 29.1811 136.693 32.7211 134.691 35.7815C132.736 38.8419 129.983 41.2401 126.435 42.9758C122.933 44.6659 118.838 45.511 114.153 45.511ZM114.153 38.5223C117.155 38.5223 119.725 37.9741 121.863 36.8778C124.047 35.7815 125.73 34.2514 126.913 32.2872C128.095 30.2774 128.687 27.9022 128.687 25.1614C128.687 22.4208 128.095 20.0683 126.913 18.1042C125.73 16.0944 124.047 14.5413 121.863 13.4451C119.725 12.3488 117.155 11.8007 114.153 11.8007C111.196 11.8007 108.626 12.3488 106.442 13.4451C104.259 14.5413 102.576 16.0944 101.393 18.1042C100.211 20.0683 99.6192 22.4208 99.6192 25.1614C99.6192 27.9022 100.211 30.2774 101.393 32.2872C102.576 34.2514 104.259 35.7815 106.442 36.8778C108.626 37.9741 111.196 38.5223 114.153 38.5223Z" fill="#B1D481"/>
<path d="M30.393 26.431C30.1658 28.6267 29.3707 30.5513 28.0076 32.2053C26.6445 33.8591 24.8697 35.1423 22.6832 36.0547C20.525 36.9672 18.097 37.4234 15.3993 37.4234C12.4176 37.4234 9.79086 36.8817 7.51912 35.7981C5.24735 34.7146 3.47254 33.2032 2.19467 31.2643C0.916795 29.3252 0.277863 27.0869 0.277863 24.5491C0.277863 21.9828 0.916795 19.7301 2.19467 17.7911C3.47254 15.8521 5.24735 14.3409 7.51912 13.2573C9.79086 12.1452 12.4176 11.5892 15.3993 11.5892C18.097 11.5892 20.525 12.0597 22.6832 13.0006C24.8697 13.9132 26.6445 15.1962 28.0076 16.8502C29.3707 18.4754 30.1658 20.4002 30.393 22.6243H21.7461C21.4336 21.1701 20.7095 20.058 19.5737 19.2881C18.4378 18.4897 17.0463 18.0905 15.3993 18.0905C14.1214 18.0905 12.9997 18.3471 12.0342 18.8604C11.0971 19.3452 10.3588 20.0723 9.81932 21.0418C9.30817 21.9828 9.05259 23.1518 9.05259 24.5491C9.05259 25.9177 9.30817 27.0869 9.81932 28.0563C10.3588 28.9973 11.0971 29.7245 12.0342 30.2377C12.9997 30.7224 14.1214 30.9649 15.3993 30.9649C17.0463 30.9649 18.4378 30.5513 19.5737 29.7245C20.738 28.8975 21.4621 27.7997 21.7461 26.431H30.393ZM33.8312 3.80467H42.5634V36.739H33.8312V3.80467ZM51.4658 11.5892C53.8228 11.5892 55.8106 12.0597 57.4292 13.0006C59.0762 13.9416 60.3399 15.2676 61.2202 16.9785C62.1005 18.6893 62.5407 20.7139 62.5407 23.0521V36.739H53.8086V24.3352C53.8086 22.5103 53.34 21.113 52.4029 20.1435C51.4942 19.1741 50.1737 18.6893 48.4415 18.6893C47.2488 18.6893 46.1982 18.9459 45.2894 19.4592C44.4091 19.9725 43.7276 20.6996 43.2449 21.6406C42.7905 22.5816 42.5634 23.6937 42.5634 24.9768L39.8372 23.5653C40.178 20.9705 40.9021 18.7891 42.0096 17.0213C43.1171 15.2248 44.4801 13.8704 46.0987 12.9579C47.7458 12.0455 49.5348 11.5892 51.4658 11.5892ZM65.7926 12.3163H74.6525L76.1007 21.0418V36.739H67.4112V20.5285L65.7926 12.3163ZM87.5163 11.9313V19.3736C86.6644 19.2025 85.8551 19.0885 85.0884 19.0315C84.3501 18.9459 83.6686 18.9031 83.0438 18.9031C81.7943 18.9031 80.6442 19.1598 79.5936 19.673C78.5429 20.1578 77.691 20.9705 77.0378 22.1111C76.4131 23.2516 76.1007 24.7772 76.1007 26.6876L74.4395 24.6346C74.6666 22.8667 75.0074 21.2129 75.4618 19.673C75.9162 18.1048 76.5266 16.7218 77.2934 15.5242C78.0886 14.2981 79.0682 13.3428 80.2325 12.6585C81.3967 11.9456 82.8166 11.5892 84.492 11.5892C84.9748 11.5892 85.4717 11.6177 85.9829 11.6747C86.494 11.7318 87.0052 11.8173 87.5163 11.9313Z" fill="#573A74"/>
<path d="M141.138 11.4035H149.87L151.446 21.1555V35.8263H142.757V19.8296L141.138 11.4035ZM160.391 10.6764C162.72 10.6764 164.708 11.1469 166.355 12.0879C168.002 13.0288 169.252 14.3548 170.104 16.0656C170.984 17.7765 171.424 19.8011 171.424 22.1393V35.8263H162.735V23.4223C162.735 21.5974 162.266 20.2002 161.329 19.2307C160.42 18.2613 159.1 17.7765 157.367 17.7765C156.175 17.7765 155.124 18.0331 154.215 18.5464C153.335 19.0597 152.654 19.7868 152.171 20.7278C151.688 21.6688 151.446 22.7809 151.446 24.0639L148.763 22.6525C149.104 20.0577 149.828 17.8763 150.936 16.1084C152.043 14.312 153.406 12.9575 155.025 12.0451C156.643 11.1326 158.433 10.6764 160.391 10.6764ZM190.382 36.5106C187.258 36.5106 184.532 35.9831 182.203 34.928C179.875 33.8444 178.058 32.3332 176.751 30.3943C175.445 28.4267 174.791 26.1741 174.791 23.6362C174.791 21.0414 175.445 18.7745 176.751 16.8355C178.058 14.8965 179.875 13.3852 182.203 12.3017C184.532 11.2181 187.258 10.6764 190.382 10.6764C193.477 10.6764 196.188 11.2181 198.517 12.3017C200.874 13.3852 202.706 14.8965 204.013 16.8355C205.318 18.7745 205.971 21.0414 205.971 23.6362C205.971 26.1741 205.318 28.4267 204.013 30.3943C202.706 32.3332 200.874 33.8444 198.517 34.928C196.188 35.9831 193.477 36.5106 190.382 36.5106ZM190.382 30.0521C191.802 30.0521 193.009 29.7954 194.002 29.2822C195.025 28.7689 195.806 28.0275 196.345 27.058C196.885 26.0885 197.155 24.948 197.155 23.6362C197.155 22.2676 196.885 21.1127 196.345 20.1717C195.806 19.2023 195.025 18.4608 194.002 17.9476C193.009 17.4343 191.802 17.1777 190.382 17.1777C188.962 17.1777 187.74 17.4343 186.718 17.9476C185.696 18.4608 184.915 19.2023 184.376 20.1717C183.837 21.1127 183.566 22.2533 183.566 23.5934C183.566 24.9337 183.837 26.0885 184.376 27.058C184.915 28.0275 185.696 28.7689 186.718 29.2822C187.74 29.7954 188.962 30.0521 190.382 30.0521ZM237.833 27.8707C237.833 29.7527 237.264 31.3351 236.129 32.6183C234.993 33.9015 233.374 34.871 231.273 35.5268C229.172 36.1826 226.644 36.5106 223.691 36.5106C220.653 36.5106 217.984 36.1399 215.683 35.3985C213.412 34.6571 211.637 33.6164 210.359 32.2761C209.081 30.936 208.399 29.3819 208.314 27.614H217.132C217.33 28.2698 217.713 28.8402 218.282 29.3249C218.878 29.7812 219.659 30.1376 220.624 30.3943C221.589 30.6223 222.739 30.7364 224.074 30.7364C225.807 30.7364 227.113 30.5653 227.993 30.2232C228.902 29.881 229.357 29.3677 229.357 28.6834C229.357 28.1416 229.015 27.7424 228.334 27.4857C227.653 27.2006 226.488 26.9867 224.841 26.8441L220.539 26.502C217.671 26.3024 215.385 25.8747 213.681 25.2188C212.006 24.5344 210.799 23.6648 210.061 22.6098C209.322 21.5262 208.953 20.3001 208.953 18.9313C208.953 17.0779 209.521 15.5524 210.657 14.3548C211.821 13.1286 213.426 12.2162 215.47 11.6174C217.543 10.9901 219.957 10.6764 222.712 10.6764C225.438 10.6764 227.865 11.0328 229.995 11.7457C232.125 12.4585 233.829 13.4566 235.107 14.7397C236.385 15.9943 237.123 17.4771 237.322 19.188H228.505C228.363 18.6462 228.05 18.1614 227.567 17.7337C227.085 17.2775 226.417 16.9068 225.565 16.6216C224.713 16.3365 223.62 16.1939 222.286 16.1939C220.724 16.1939 219.531 16.365 218.708 16.7072C217.913 17.0494 217.514 17.5341 217.514 18.1614C217.514 18.6462 217.756 19.0312 218.238 19.3163C218.75 19.6014 219.688 19.8011 221.05 19.9151L226.715 20.3428C229.527 20.5139 231.741 20.9274 233.361 21.5832C234.979 22.2105 236.129 23.0517 236.811 24.1067C237.492 25.1618 237.833 26.4164 237.833 27.8707Z" fill="#573A74"/>
<path d="M118.223 25.9033C117.016 24.8784 116.36 23.3445 116.447 21.7602L116.611 18.807C116.707 17.0579 115.32 15.5862 113.576 15.5862C111.898 15.5862 110.537 16.9524 110.537 18.6376V24.1143C110.537 26.1402 111.395 28.0704 112.898 29.4227L115.789 32.0253C116.989 33.1047 118.81 33.0877 119.988 31.9861C121.356 30.7096 121.304 28.521 119.879 27.3104L118.223 25.9033Z" fill="#573A74"/>
</svg>
