<svg width="50" height="50" viewBox="0 0 50 50" fill="none" xmlns="http://www.w3.org/2000/svg">
<path d="M24.8554 0.00390625C27.3945 0.0490939 29.6243 0.580677 31.5439 1.59961C33.5785 2.63775 35.1566 4.0968 36.2783 5.97656C37.4261 7.82839 38 10.0029 38 12.5C38 14.9691 37.4261 17.1436 36.2783 19.0234C35.1566 20.9032 33.5784 22.3762 31.5439 23.4424C29.6243 24.4345 27.3945 24.9511 24.8554 24.9951C24.7373 24.9979 24.6188 25 24.5 25C24.3808 25 24.262 24.998 24.1435 24.9951C21.6037 24.951 19.3613 24.4344 17.417 23.4424C15.4085 22.3762 13.8303 20.9032 12.6826 19.0234C11.5609 17.1435 11 14.9691 11 12.5C11 10.0028 11.5609 7.82839 12.6826 5.97656C13.8303 4.09679 15.4085 2.63776 17.417 1.59961C19.3613 0.580797 21.6037 0.0492034 24.1435 0.00390625C24.262 0.00106388 24.3808 0 24.5 0C24.6188 0 24.7373 0.00107943 24.8554 0.00390625ZM24.1816 7.93359C23.2138 7.96983 22.3551 8.18243 21.6054 8.5752C20.7901 8.99659 20.1485 9.5885 19.6826 10.3516C19.2687 11.0349 19.0455 11.8268 19.0078 12.7266C19.0026 12.8171 19 12.9083 19 13C19 13.0917 19.0026 13.1829 19.0078 13.2734C19.0458 14.1636 19.2691 14.9555 19.6826 15.6484C20.1485 16.4115 20.7901 17.0096 21.6054 17.4424C22.328 17.8109 23.152 18.0184 24.0771 18.0645L24.4804 18.0742C25.5708 18.0742 26.5237 17.8636 27.3388 17.4424C28.1647 17.0097 28.8054 16.4113 29.2607 15.6484C29.6838 14.9555 29.9122 14.1635 29.9511 13.2734C29.9563 13.1829 29.9599 13.0918 29.9599 13C29.9599 12.9082 29.9563 12.8171 29.9511 12.7266C29.9126 11.8268 29.6842 11.0348 29.2607 10.3516C28.8054 9.58866 28.1647 8.99653 27.3388 8.5752C26.5982 8.18212 25.7441 7.96963 24.7763 7.93359C24.7715 7.93335 24.7666 7.93285 24.7617 7.93262L24.4804 7.92578C24.3803 7.92578 24.2804 7.92869 24.1816 7.93359Z" fill="#573A74"/>
<path d="M25 29.0615C30.7485 29.0615 36.348 30.5334 40.7685 33.2051C45.7443 36.215 48.9104 40.5044 49.9248 45.6104C50.1579 46.7805 49.8427 47.9378 49.0615 48.7852C48.7068 49.1709 48.2617 49.4803 47.7588 49.6904C47.2557 49.9006 46.7071 50.0064 46.1533 50H3.84665C3.29293 50.0065 2.7443 49.9004 2.24118 49.6904C1.73829 49.4805 1.29326 49.1717 0.938447 48.7861C0.157218 47.9388 -0.158001 46.7815 0.0751657 45.6113C1.08957 40.5054 4.25561 36.2161 9.23142 33.2051C13.6519 30.5323 19.2515 29.0615 25 29.0615ZM24.8662 37C21.4477 37 18.1179 37.4216 15.4892 38.1875C12.5305 39.0502 10.6482 40.2792 10.0449 41.7422C9.90624 42.0775 10.093 42.4095 10.5576 42.6523C10.7686 42.7628 11.0339 42.851 11.333 42.9111C11.632 42.9712 11.958 43.0019 12.2871 43H37.4453C37.7746 43.0018 38.1012 42.9713 38.4004 42.9111C38.6994 42.8509 38.9639 42.7619 39.1748 42.6514C39.6391 42.4086 39.8268 42.0774 39.6884 41.7422C39.0852 40.2791 37.202 39.05 34.2431 38.1875C31.6144 37.4219 28.2846 37 24.8662 37Z" fill="#573A74"/>
</svg>
