<svg width="130" height="117" viewBox="0 0 130 117" fill="none" xmlns="http://www.w3.org/2000/svg">
<path d="M65 117C52.0628 117 40.6956 114.571 30.8985 109.712C21.2271 104.722 13.628 97.8283 8.10145 89.0303C2.70048 80.2323 0 70.0556 0 58.5C0 46.8131 2.70048 36.6364 8.10145 27.9697C13.628 19.1717 21.2271 12.3434 30.8985 7.48484C40.6956 2.49495 52.0628 0 65 0C77.9372 0 89.2415 2.49495 98.913 7.48484C108.71 12.3434 116.309 19.1717 121.71 27.9697C127.237 36.6364 130 46.8131 130 58.5C130 70.0556 127.237 80.2323 121.71 89.0303C116.309 97.8283 108.71 104.722 98.913 109.712C89.2415 114.571 77.9372 117 65 117ZM65 96.9091C73.2899 96.9091 80.3865 95.3333 86.2898 92.1818C92.3188 89.0303 96.9662 84.6313 100.232 78.9848C103.498 73.2071 105.13 66.3788 105.13 58.5C105.13 50.6212 103.498 43.8586 100.232 38.2121C96.9662 32.4343 92.3188 27.9697 86.2898 24.8182C80.3865 21.6667 73.2899 20.0909 65 20.0909C56.8357 20.0909 49.7391 21.6667 43.7101 24.8182C37.6812 27.9697 33.0338 32.4343 29.7681 38.2121C26.5024 43.8586 24.8696 50.6212 24.8696 58.5C24.8696 66.3788 26.5024 73.2071 29.7681 78.9848C33.0338 84.6313 37.6812 89.0303 43.7101 92.1818C49.7391 95.3333 56.8357 96.9091 65 96.9091Z" fill="#B1D481"/>
<path d="M56.8737 65.2577C56.8737 63.0052 57.5123 61.0219 58.7895 59.308C60.0667 57.5451 62.1544 56.0026 65.0526 54.6804L70.8 52.1096C72.0281 51.5219 72.9614 50.8608 73.6 50.1263C74.2386 49.3428 74.5579 48.4858 74.5579 47.5554C74.5579 45.6946 73.7474 44.25 72.1263 43.2217C70.5053 42.1444 68.1719 41.6057 65.1263 41.6057C61.9825 41.6057 59.4772 42.2913 57.6105 43.6624C55.793 44.9846 54.7123 46.8209 54.3684 49.1714H40C40.393 43.1482 42.8 38.4472 47.2211 35.0683C51.6912 31.6894 57.6597 30 65.1263 30C72.6421 30 78.4877 31.4936 82.6632 34.4807C86.8877 37.4188 89 41.5812 89 46.9678C89 49.6121 88.2632 51.9871 86.7895 54.0928C85.3158 56.1985 83.0807 57.9369 80.0842 59.308L73.8211 62.2461C72.6912 62.7848 71.8316 63.3969 71.2421 64.0825C70.6526 64.768 70.3579 65.625 70.3579 66.6534V67.8286H57.2421C57.0948 67.3389 56.9965 66.8982 56.9474 66.5065C56.8983 66.0657 56.8737 65.6495 56.8737 65.2577ZM63.6526 87C61.1474 87 59.1088 86.29 57.5369 84.8699C56.0141 83.4497 55.2527 81.5889 55.2527 79.2874C55.2527 76.9369 56.0141 75.0515 57.5369 73.6314C59.1088 72.2113 61.1474 71.5013 63.6526 71.5013C66.1579 71.5013 68.1719 72.2113 69.6947 73.6314C71.2176 75.0515 71.979 76.9369 71.979 79.2874C71.979 81.5889 71.2176 83.4497 69.6947 84.8699C68.1719 86.29 66.1579 87 63.6526 87Z" fill="#573A74"/>
</svg>
