<svg width="45" height="50" viewBox="0 0 45 50" fill="none" xmlns="http://www.w3.org/2000/svg">
<path d="M22.5 50C24.0482 50.0019 25.5586 49.5215 26.8212 48.6254C28.0838 47.7293 29.0358 46.4621 29.545 45H15.455C15.9642 46.4621 16.9162 47.7293 18.1788 48.6254C19.4414 49.5215 20.9518 50.0019 22.5 50ZM40 31.465V20C40 11.9575 34.5375 5.1825 27.1375 3.145C26.405 1.3 24.615 0 22.5 0C20.385 0 18.595 1.3 17.8625 3.145C10.4625 5.185 5 11.9575 5 20V31.465L0.7325 35.7325C0.263627 36.2012 0.000141594 36.837 0 37.5V40C0 40.663 0.263392 41.2989 0.732233 41.7678C1.20107 42.2366 1.83696 42.5 2.5 42.5H42.5C43.163 42.5 43.7989 42.2366 44.2678 41.7678C44.7366 41.2989 45 40.663 45 40V37.5C44.9999 36.837 44.7364 36.2012 44.2675 35.7325L40 31.465Z" fill="#573A74"/>
</svg>
