<svg width="50" height="50" viewBox="0 0 50 50" fill="none" xmlns="http://www.w3.org/2000/svg">
<path d="M36.587 29.9337C38.4585 26.8603 39.4483 23.3311 39.4478 19.7326C39.4478 8.83152 30.6272 0.00434783 19.7239 0C8.83043 0.00326087 0 8.83152 0 19.7304C0 30.6196 8.83152 39.4467 19.7304 39.4467C23.4696 39.4467 26.9533 38.3902 29.9304 36.5848L43.3467 50L50 43.3435L36.587 29.9337ZM19.7283 31.9348C12.987 31.9185 7.53696 26.4707 7.525 19.7435C7.5296 16.5082 8.8167 13.4067 11.1042 11.1188C13.3917 8.83088 16.493 7.54322 19.7283 7.53804C26.4663 7.55544 31.9185 13.0033 31.9326 19.7435C31.9185 26.463 26.4641 31.9185 19.7283 31.9348Z" fill="#573A74"/>
</svg>
