<svg width="50" height="50" viewBox="0 0 50 50" fill="none" xmlns="http://www.w3.org/2000/svg">
<path d="M28.75 0H21.25L18.75 16.25H31.25M31.25 33.75H18.75L21.25 50H28.75" fill="#573A74"/>
<path d="M45.3291 9.97398L40.0258 4.67068L26.7676 14.3934L35.6064 23.2322M23.232 35.6066L14.3932 26.7678L4.67049 40.026L9.97379 45.3293" fill="#573A74"/>
<path d="M50 28.75V21.25L33.75 18.75V31.25M16.25 31.25V18.75L0 21.25V28.75" fill="#573A74"/>
<path d="M40.0261 45.3293L45.3294 40.026L35.6067 26.7678L26.7678 35.6066M14.3935 23.2322L23.2323 14.3934L9.97406 4.67068L4.67076 9.97398" fill="#573A74"/>
<path d="M24.5 8C19.8587 8 15.4075 9.84374 12.1256 13.1256C8.84374 16.4075 7 20.8587 7 25.5C7 30.1413 8.84374 34.5925 12.1256 37.8744C15.4075 41.1563 19.8587 43 24.5 43C29.1413 43 33.5925 41.1563 36.8744 37.8744C40.1563 34.5925 42 30.1413 42 25.5C42 20.8587 40.1563 16.4075 36.8744 13.1256C33.5925 9.84374 29.1413 8 24.5 8V17.3333C26.6659 17.3333 28.7432 18.1937 30.2747 19.7253C31.8063 21.2568 32.6667 23.3341 32.6667 25.5C32.6667 27.6659 31.8063 29.7432 30.2747 31.2747C28.7432 32.8063 26.6659 33.6667 24.5 33.6667C22.3341 33.6667 20.2568 32.8063 18.7253 31.2747C17.1937 29.7432 16.3333 27.6659 16.3333 25.5C16.3333 23.3341 17.1937 21.2568 18.7253 19.7253C20.2568 18.1937 22.3341 17.3333 24.5 17.3333" fill="#573A74"/>
</svg>
