<svg width="50" height="46" viewBox="0 0 50 46" fill="none" xmlns="http://www.w3.org/2000/svg">
<path d="M34.4444 46C33.0185 46 31.7983 45.5 30.7837 44.4999C29.7691 43.4998 29.261 42.2961 29.2593 40.8889V30.6667C29.2593 29.2611 29.7674 28.0583 30.7837 27.0582C31.8 26.0581 33.0202 25.5573 34.4444 25.5556H44.8148C46.2407 25.5556 47.4619 26.0564 48.4781 27.0582C49.4944 28.06 50.0017 29.2628 50 30.6667V40.8889C50 42.2944 49.4927 43.4981 48.4781 44.4999C47.4636 45.5017 46.2425 46.0017 44.8148 46H34.4444ZM0 39.1V32.2H23.1481V39.1H0ZM34.4444 20.4444C33.0185 20.4444 31.7983 19.9444 30.7837 18.9443C29.7691 17.9443 29.261 16.7406 29.2593 15.3333V5.11111C29.2593 3.70556 29.7674 2.50274 30.7837 1.50267C31.8 0.502593 33.0202 0.0017037 34.4444 0H44.8148C46.2407 0 47.4619 0.500889 48.4781 1.50267C49.4944 2.50444 50.0017 3.70726 50 5.11111V15.3333C50 16.7389 49.4927 17.9426 48.4781 18.9443C47.4636 19.9461 46.2425 20.4461 44.8148 20.4444H34.4444ZM0 13.8V6.9H23.1481V13.8H0Z" fill="#573A74"/>
</svg>
