<svg width="50" height="46" viewBox="0 0 50 46" fill="none" xmlns="http://www.w3.org/2000/svg">
<path d="M34.9479 7.46747L42.7778 15.573C43.1076 15.9144 43.1076 16.4716 42.7778 16.813L23.8194 36.4388L15.7639 37.3643C14.6875 37.4901 13.776 36.5466 13.8976 35.4323L14.7917 27.0932L33.75 7.46747C34.0799 7.126 34.6181 7.126 34.9479 7.46747ZM49.0104 5.40965L44.7743 1.02442C43.4549 -0.341473 41.3108 -0.341473 39.9826 1.02442L36.9097 4.20551C36.5799 4.54698 36.5799 5.10412 36.9097 5.44559L44.7396 13.5511C45.0694 13.8926 45.6076 13.8926 45.9375 13.5511L49.0104 10.37C50.3299 8.99512 50.3299 6.77554 49.0104 5.40965ZM33.3333 31.101V40.2489H5.55556V11.4933H25.5035C25.7813 11.4933 26.0417 11.3764 26.2413 11.1787L29.7135 7.58429C30.3733 6.90135 29.9045 5.74214 28.9757 5.74214H4.16667C1.86632 5.74214 0 7.67416 0 10.0555V41.6867C0 44.068 1.86632 46 4.16667 46H34.7222C37.0226 46 38.8889 44.068 38.8889 41.6867V27.5065C38.8889 26.545 37.7691 26.0688 37.1094 26.7427L33.6372 30.3372C33.4462 30.5439 33.3333 30.8134 33.3333 31.101Z" fill="#573A74"/>
</svg>
